# xmcd CD database file
# Copyright (C) 1997 Ti Kan
#
# Track frame offsets:
#  150
#  13167
#  26637
#  44405
#  84952
#  95027
#  113322
#  127297
#  146700
#  166730
#  187937
#  206175
#  225300
#  242940
#  259730
#
# Disc length: 3651 seconds
#
# Revision: 1
# Processed by: cddbd v1.4b41PL1 Copyright (c) Steve Scherf et al.
# Submitted via: CDWizzard Release:4.31
#
DISCID=c90e410f
DTITLE=Danny Morris Band - I Won't Worry
DYEAR=1900
DGENRE=
TTITLE0=Heads Up
TTITLE1=Do You Mean It
TTITLE2=Fireball
TTITLE3=Misery Tears
TTITLE4=Navajo Spaceship
TTITLE5=Miss Ann
TTITLE6=Experiment In Terror
TTITLE7=I Won't Worry
TTITLE8=Miserlou
TTITLE9=Memphis
TTITLE10=The Stalker
TTITLE11=Real Cool Kitty
TTITLE12=Latania
TTITLE13=Pills (Rock and Roll Nurse)
TTITLE14=Bonzai Pipeline
EXTD=
EXTT0=
EXTT1=
EXTT2=
EXTT3=
EXTT4=
EXTT5=
EXTT6=
EXTT7=
EXTT8=
EXTT9=
EXTT10=
EXTT11=
EXTT12=
EXTT13=
EXTT14=
PLAYORDER=
